<svg width="48" height="48" viewBox="0 0 48 48" fill="none" xmlns="http://www.w3.org/2000/svg">
<g clip-path="url(#clip0_293_29152)">
<mask id="mask0_293_29152" style="mask-type:luminance" maskUnits="userSpaceOnUse" x="0" y="0" width="48" height="48">
<path d="M48 0H0V48H48V0Z" fill="white"/>
</mask>
<g mask="url(#mask0_293_29152)">
<path d="M31.2381 10.3349L16.8108 6C14.9996 6 13.316 7.01527 12.3977 8.67176L5.68875 20.8282C4.77042 22.4847 4.77042 24.5153 5.68875 26.1718L12.3977 38.3282C13.316 39.9847 14.9996 41 16.8108 41H31.1892C33.0004 41 34.684 39.9847 35.6023 38.3282L42.3112 30.4466C43.2296 28.7901 43.2296 26.7595 42.3112 25.1031L35.6023 14.0153C34.684 12.3588 32.9722 10.656 31.2381 10.3349Z" fill="#FAE041"/>
<rect x="18" y="14" width="27" height="22.5" rx="3" fill="white"/>
<path d="M43 17H21V32H43V17Z" fill="white"/>
<path d="M22.5792 34.3336C21.9569 34.3336 21.4222 34.1197 20.975 33.692C20.5472 33.2447 20.3333 32.71 20.3333 32.0878V28.3545H22.5792V32.0878H41.4208V17.9128H22.5792V21.6461H20.3333V17.9128C20.3333 17.2906 20.5472 16.7656 20.975 16.3378C21.4222 15.8906 21.9569 15.667 22.5792 15.667H41.4208C42.0431 15.667 42.5681 15.8906 42.9958 16.3378C43.4431 16.7656 43.6667 17.2906 43.6667 17.9128V32.0878C43.6667 32.71 43.4431 33.2447 42.9958 33.692C42.5681 34.1197 42.0431 34.3336 41.4208 34.3336H22.5792ZM31.4167 30.2211L29.8417 28.617L32.35 26.1086H20.3333V23.892H32.35L29.8417 21.3836L31.4167 19.7795L36.6375 25.0003L31.4167 30.2211Z" fill="#202124"/>
</g>
</g>
<defs>
<clipPath id="clip0_293_29152">
<rect width="48" height="48" fill="white"/>
</clipPath>
</defs>
</svg>
