<svg width="48" height="48" viewBox="0 0 48 48" fill="none" xmlns="http://www.w3.org/2000/svg">
<g clip-path="url(#clip0_293_29165)">
<mask id="mask0_293_29165" style="mask-type:luminance" maskUnits="userSpaceOnUse" x="0" y="0" width="48" height="48">
<path d="M48 0H0V48H48V0Z" fill="white"/>
</mask>
<g mask="url(#mask0_293_29165)">
<path d="M43.1838 20.3015C38.5676 17.5506 31.6628 19.7144 27.044 16.9669C22.4172 14.2147 20.0712 6.55793 15.447 3.80226C9.26788 0.119982 1.38885 4.50881 1.29272 11.7119C1.29272 11.7119 2.17603 35.4722 12.8048 41.7889C23.4335 48.1056 42.9685 36.4382 42.9685 36.4382C49.2431 32.9642 49.3629 23.9837 43.1838 20.3015Z" fill="#FAE041"/>
<path d="M35 11H13C11.8954 11 11 11.8954 11 13V35C11 36.1046 11.8954 37 13 37H35C36.1046 37 37 36.1046 37 35V13C37 11.8954 36.1046 11 35 11Z" fill="white"/>
<path fill-rule="evenodd" clip-rule="evenodd" d="M34.125 12.75H13.875C13.25 12.75 12.75 13.25 12.75 13.875V34.125C12.75 34.625 13.25 35.25 13.875 35.25H34.125C34.625 35.25 35.25 34.625 35.25 34.125V13.875C35.25 13.25 34.625 12.75 34.125 12.75ZM20.25 17.75H17.75V20.25H20.25V17.75ZM30.25 17.75H22.75V20.25H30.25V17.75ZM30.25 22.75H22.75V25.25H30.25V22.75ZM22.75 27.75H30.25V30.25H22.75V27.75ZM17.75 22.75H20.25V25.25H17.75V22.75ZM20.25 27.75H17.75V30.25H20.25V27.75ZM15.25 32.75H32.75V15.25H15.25V32.75Z" fill="#202124"/>
</g>
</g>
<defs>
<clipPath id="clip0_293_29165">
<rect width="48" height="48" fill="white"/>
</clipPath>
</defs>
</svg>
