<svg width="48" height="48" viewBox="0 0 48 48" fill="none" xmlns="http://www.w3.org/2000/svg">
<path d="M28.2001 9.31422C18.6681 -1.37558 1.33144 9.58843 6.97547 22.7371L11.3782 32.9942C12.7947 36.2941 15.5653 38.8268 18.9939 39.9574L25.7118 42.1716C38.0295 46.2315 47.9144 31.4229 39.3204 21.7848L28.2001 9.31422Z" fill="#20BEFF"/>
<path d="M27 13H7C5.89543 13 5 13.8954 5 15V35C5 36.1046 5.89543 37 7 37H27C28.1046 37 29 36.1046 29 35V15C29 13.8954 28.1046 13 27 13Z" fill="white"/>
<path d="M8.74583 35.5C8.12361 35.5 7.58889 35.2861 7.14167 34.8583C6.71389 34.4111 6.5 33.8764 6.5 33.2542V16.7458C6.5 16.1236 6.71389 15.5986 7.14167 15.1708C7.58889 14.7236 8.12361 14.5 8.74583 14.5H25.2542C25.8764 14.5 26.4014 14.7236 26.8292 15.1708C27.2764 15.5986 27.5 16.1236 27.5 16.7458V19.1083H25.2542V16.7458H8.74583V33.2542H25.2542V30.8917H27.5V33.2542C27.5 33.8764 27.2764 34.4111 26.8292 34.8583C26.4014 35.2861 25.8764 35.5 25.2542 35.5H8.74583ZM22.8917 30.775L21.3458 29.2L24.3792 26.1083H13.6167V23.8917H24.3792L21.3458 20.8L22.8917 19.225L28.6667 25L22.8917 30.775Z" fill="#202124"/>
</svg>
