<svg fill="none" height="140" viewBox="0 0 380 140" width="380" xmlns="http://www.w3.org/2000/svg"><g fill="#fff"><path d="m220 50h-10v10h-40v-10h-10v-40h10v-10h40v10h10v10h-20v-10h-20v40h20v-10h20z"/><path d="m140 60h-20v-10h-10v-10h-10v20h-20v-60h50v10h10v20h-10v20h10zm-20-30v-20h-20v20z"/><path d="m60 60h-20v-10h-20v10h-20v-40h10v-10h10v-10h20v10h10v10h10zm-20-20v-20h-20v20z"/><path d="m380 140h-60v-60h60v10h-40v10h30v10h-30v20h40z"/><path d="m300 140h-60v-20h10v-10h10v-10h10v-10h-30v-10h60v10h-10v10h-10v10h-10v10h-10v10h40z"/><path d="m220 140h-60v-10h20v-40h-20v-10h60v10h-20v40h20z"/><path d="m140 140h-20v-10h-10v-10h-10v20h-20v-60h50v10h10v20h-10v20h10zm-20-30v-20h-20v20z"/><path d="m60 110h-10v10h-30v20h-20v-60h50v10h10zm-20 0v-20h-20v20z"/></g><path d="m240 0h60v60h-60z" fill="#e53aa3"/><path d="m320 0h60v60h-60z" fill="#ffdc00"/></svg>