<svg fill="none" height="1184" viewBox="0 0 2894 1184" width="2894" xmlns="http://www.w3.org/2000/svg"><path clip-rule="evenodd" d="m2272.5.658024c-58.73 3.491996-109.36 13.164976-161.39 30.834976-25.02 8.496-44.45 16.617-70.61 29.512-45.1 22.228-84 47.821-122.61 80.667-15.96 13.58-54.37 52.223-67.91 68.328-77.13 91.748-124.13 201.988-136.42 320-8.7 83.6.66 169.641 27.08 248.844 49.62 148.797 156.83 272.296 297.49 342.726 103.05 51.59 218.09 71.73 333.37 58.38 236.54-27.4 435.06-196.608 500.5-426.585 16.37-57.555 22.7-107.609 21.71-171.583-.54-34.635-1.75-50.855-5.82-77.782-26.39-174.771-129.62-328.605-281.89-420.055-92.48-55.543-198.96-84.644973-306.48-83.764973-12.11.099-24.27.313997-27.02.477997zm-1.5 61.432976c-103.31 6.102-201.55 41.807-284.5 103.397-68.58 50.92-124.54 118.167-161.45 194.012-27.23 55.936-43.03 111.078-50.74 177-2.23 19.095-2.55 85.981-.5 105.5 11.62 110.566 51.48 205.513 122.15 291 12.74 15.414 49.54 52.267 65.04 65.136 34.42 28.584 67.28 49.994 107.02 69.744 167.89 83.46 368.64 71.09 525.48-32.37 31.45-20.74 56.52-41.342 84.53-69.426 26.13-26.211 45.78-49.998 65.19-78.909 51.68-77.01 81.97-165.282 88.76-258.675 1.3-17.973 1.3-55.027 0-73-8.26-113.594-50.01-216.468-124.02-305.555-13.19-15.879-47.77-50.451-63.91-63.882-106.03-88.291-237.5-131.979-373.05-123.972zm-67.19 290.658c-27.16.257-29.73.428-30.22 2.016-.29.954-4.62 20.635-9.61 43.735s-9.33 43.017-9.64 44.26l-.56 2.26 46.34-.26 46.34-.26 9.75-44.5c5.36-24.475 9.76-45.288 9.77-46.25.02-1.605-1.33-1.731-16.23-1.515-8.94.129-29.61.36-45.94.514zm-218.2 2.001c-.52 1.72-65.22 288.126-66.31 293.5l-.55 2.75h95.13c91.54 0 95.12.069 95.12 1.831 0 1.008-9.9 46.626-22 101.375-12.1 54.748-22 100.274-22 101.168 0 1.477 4.15 1.626 45.39 1.626h45.39l.56-2.25c3.74-15.136 65.66-293.18 65.66-294.829 0-.555-37.63-.921-94.57-.921-89.59 0-94.54-.092-94.05-1.75.78-2.652 45.62-202.709 45.62-203.533 0-.394-20.9-.717-46.43-.717-43.36 0-46.47.116-46.96 1.75zm367.96 42.5c-5.46 24.338-10.13 45.038-10.37 46-.41 1.657 4.51 1.75 92.8 1.75 88.3 0 93.21.093 92.78 1.75-.25.962-6.04 26.609-12.86 56.991l-12.42 55.242-93.4.258-93.41.259-21.32 95c-23.93 106.642-44.23 196.864-45.05 200.25l-.54 2.25 139.86-.007 139.86-.006 10.22-45.694c5.62-25.131 9.97-45.94 9.66-46.243-.3-.302-42.25-.775-93.23-1.05l-92.68-.5 12.58-56 12.59-56 93.51-.255 93.52-.255 12.15-52.745c10.6-46.028 55.18-243.851 55.18-244.869 0-.207-62.89-.376-139.75-.376h-139.75zm-2353.57 194.75v221h157 157v-34.5-34.5h-115.5-115.5v-186.5-186.5h-41.5-41.5zm546.594-1.257c-54.364 120.859-99.06 220.309-99.326 221-.382.997 8.269 1.253 41.875 1.239l42.357-.018 21.521-50.732 21.52-50.732h110.947 110.947l21.928 50.75 21.928 50.75h42.961c33.968 0 42.858-.262 42.465-1.25-.557-1.403-189.323-419.597-195.223-432.5l-3.772-8.25h-40.642-40.642zm562.406 1.258v221.077l128.75-.332c125.87-.324 129.04-.379 141.81-2.465 32.55-5.317 57.03-13.769 76.44-26.393 9.23-6.005 26.6-23.822 31.5-32.321 8.8-15.259 12.85-28.112 14.72-46.817 2.72-27.076-4.08-56.563-17.87-77.442-5.52-8.361-18.28-21.322-26.77-27.19-7.68-5.306-23.44-13.396-29.83-15.31-3.36-1.009-5.18-2.808-2.83-2.808 2.23 0 16.66-10.743 23.4-17.417 22.23-22.014 32.92-50.852 31.37-84.583-2.4-52.112-36.39-87.896-97.25-102.366-26.15-6.216-20.76-5.992-152.69-6.367l-120.75-.343zm83-96.001v61h64.95c52.22 0 67.21-.296 76.49-1.513 21.84-2.864 37.61-9.513 48.56-20.477 10.14-10.16 14.95-22.398 14.98-38.124.06-29.903-16.31-49-49.13-57.32-15.78-4-27.37-4.566-93.52-4.566h-62.33zm-507.801-40c-.553 1.375-19.039 44.548-41.08 95.939-22.04 51.392-39.931 93.582-39.757 93.756s37.426.202 82.782.061l82.466-.256-40.737-94.5c-22.405-51.975-41.171-95.175-41.702-96-.801-1.243-1.139-1.071-1.972 1zm507.801 229v64.13l78.75-.43c83.93-.459 83.87-.456 102.77-5.642 18.28-5.014 34.27-16.98 40.51-30.3 7.87-16.828 7.87-38.688 0-55.516-6.24-13.32-22.23-25.286-40.51-30.3-18.9-5.186-18.84-5.183-102.77-5.642l-78.75-.43z" fill="#fff" fill-rule="evenodd"/></svg>