<svg width="136" height="136" viewBox="0 0 136 136" fill="none" xmlns="http://www.w3.org/2000/svg">
<path d="M41.5142 37.7224L58.862 23.8647C75.2226 10.7956 99.5314 21.4401 101.023 42.3265L104.748 94.4741C105.444 104.221 98.2368 112.743 88.5095 113.675L70.6611 115.384C63.3716 116.081 56.2125 113.107 51.5644 107.448L36.1647 88.7005C23.4227 73.1885 25.8296 50.2515 41.5142 37.7224Z" fill="#FAE041"/>
<mask id="mask0_256_553" style="mask-type:alpha" maskUnits="userSpaceOnUse" x="27" y="18" width="78" height="98">
<path d="M41.5142 37.7224L58.862 23.8647C75.2226 10.7956 99.5314 21.4401 101.023 42.3265L104.748 94.4741C105.444 104.221 98.2368 112.743 88.5095 113.675L70.6611 115.384C63.3716 116.081 56.2125 113.107 51.5644 107.448L36.1647 88.7005C23.4227 73.1885 25.8296 50.2515 41.5142 37.7224Z" fill="#FAE041"/>
</mask>
<g mask="url(#mask0_256_553)">
<path d="M96.0219 60.731C96.594 60.0601 96.9229 59.275 96.9658 58.4614C96.9658 56.7076 95.804 55.1713 94.134 54.6356C89.5548 53.1666 83.6652 50.9408 83.6652 49.5828C82.6069 48.6122 81.4056 47.5987 80.0755 46.728C79.4891 46.3568 78.9027 46.0999 78.2878 45.9714C76.6145 44.3584 74.8268 43.2308 72.8388 42.5313C71.4802 42.0603 70.2645 41.8319 69.0918 41.8319H68.9201H68.7914H68.7914C68.5769 41.8319 68.3481 41.8319 68.105 41.8176C67.8332 41.8033 67.5472 41.7891 67.2325 41.7891C66.6176 41.7891 66.1027 41.8319 65.6165 41.9318C63.2138 42.4314 61.2544 43.3735 59.624 44.8152C59.2379 45.1578 58.9233 45.4861 58.6801 45.8287C56.6207 48.655 55.8055 51.4242 56.163 54.3219C56.2345 54.9785 56.2631 55.6779 56.2917 56.4059C56.2917 56.5772 56.306 56.7342 56.306 56.9055C56.4634 60.6025 56.5349 63.8713 56.5492 66.9118C56.5635 68.7817 56.6064 70.6659 56.6636 72.493L56.6922 73.4208C56.7494 75.8903 56.8209 77.9458 56.9067 80.0869C56.9353 80.615 56.9496 81.1432 56.9782 81.6713C57.1212 84.7118 57.2643 87.8521 57.1641 90.8925C57.0926 93.1907 56.9925 95.2462 56.5921 97.2017C56.3632 98.3009 55.877 99.4 54.9903 100.785C52.1871 105.181 49.0551 109.206 45.6656 112.761C43.8778 114.631 42.6852 115.572 40.6401 117.499C47.6401 124.999 48.6401 125.999 62.6401 126.499C76.6401 127.999 86.4255 124.999 91.1401 117.499C89.6813 115.744 88.3419 114.588 86.4255 113.06C86.0965 112.804 85.7676 112.575 85.4672 112.375C85.1669 112.175 84.8809 111.99 84.6806 111.804C84.1944 111.362 83.7224 110.891 83.2219 110.405C82.6355 109.82 82.0062 109.221 81.3483 108.635C81.2768 108.564 81.2053 108.521 81.1338 108.107C80.8049 106.323 80.5761 104.467 80.4616 102.583C80.29 100.028 80.004 97.373 79.5463 94.4754C79.1745 92.1201 78.8884 89.9647 78.6596 87.9092L76.5521 69.164C76.3193 67.0937 77.7147 65.1914 79.7593 64.7915L88.1131 63.1576L88.156 63.1593C88.4981 63.173 88.827 63.1862 89.1428 63.1862C91.1307 63.1862 92.8326 62.815 94.3486 62.0442C94.9922 61.7159 95.5499 61.2734 96.0219 60.731Z" fill="white"/>
<path fill-rule="evenodd" clip-rule="evenodd" d="M74.0819 52.1832C73.8457 50.8374 73.6071 49.4775 75.1667 48.6255C75.1455 48.6043 75.1342 48.5308 75.122 48.452C75.108 48.3611 75.0929 48.2631 75.0603 48.2305C74.9103 48.1322 74.7831 48.0462 74.6627 47.9648C74.4295 47.8071 74.2215 47.6664 73.921 47.4861C71.5966 46.0429 69.1204 45.1314 66.31 45.5264C66.2337 45.5344 66.1585 45.5435 66.0838 45.5525C65.8758 45.5777 65.6716 45.6023 65.4592 45.6023C65.0643 45.6023 64.6389 45.496 64.5781 45.0555C64.5174 44.5845 64.882 44.3414 65.3073 44.2503C65.6101 44.1942 65.9211 44.163 66.2281 44.1322C66.3371 44.1212 66.4456 44.1103 66.553 44.0984C70.5029 43.5971 73.7387 45.0403 76.4883 47.7747C76.5194 47.8024 76.5489 47.8323 76.5784 47.8623C76.6789 47.9644 76.7797 48.0668 76.9441 48.0786C77.734 48.1242 78.3873 48.5495 78.9949 48.9901C80.3926 50.0079 81.6687 51.1929 82.9144 52.393C85.3906 54.7781 88.2466 56.3428 91.7255 56.6011C92.2572 56.6466 92.7737 56.753 93.275 56.9657C94.4448 57.4518 94.6271 58.5152 93.7156 59.3963C93.3054 59.8065 92.7889 60.0495 92.2572 60.2622C90.4798 60.9459 88.6264 60.9003 86.7882 60.7636C85.8383 60.692 84.8952 60.5931 83.9543 60.4943C83.4959 60.4462 83.038 60.3982 82.5802 60.3534C82.5565 60.3516 82.5326 60.3491 82.5087 60.3466C82.3332 60.3284 82.1572 60.3102 82.0636 60.5509C81.851 61.1282 81.3496 61.4168 80.8483 61.6902C79.709 62.2979 78.4936 62.5106 77.2175 62.465C76.9441 62.4498 76.7162 62.4954 76.4731 62.6473C76.1541 62.8448 75.8047 63.0271 75.4401 63.1031C74.4982 63.2854 74.1033 63.9234 73.921 64.7893C73.6019 66.3085 73.6475 67.858 73.7387 69.3924C73.9665 72.8409 74.3615 76.2438 74.954 79.6467C75.2844 81.5836 75.461 83.5462 75.6376 85.5087C75.6965 86.1629 75.7553 86.8171 75.8199 87.4704C76.0887 90.1023 76.4731 92.7095 76.8574 95.3162C76.9944 96.2453 77.1314 97.1744 77.2631 98.1045C77.4497 99.4616 77.5463 100.828 77.6429 102.194C77.7193 103.274 77.7956 104.353 77.9163 105.427C78.2658 108.632 78.9494 111.762 80.3318 114.648C81.9877 118.127 82.96 121.803 83.598 125.54C84.8893 133.197 84.7526 140.793 82.6105 148.373C81.0154 154.025 78.524 159.099 74.7565 163.55C70.5636 168.487 65.6871 172.65 60.1118 175.977C57.6204 177.465 55.1138 178.939 52.5008 180.23C50.5411 181.202 48.4599 181.886 46.333 182.403C46.3023 182.411 46.2707 182.418 46.2392 182.425C46.0374 182.47 45.8399 182.515 45.8925 182.843C46.0189 183.57 45.9627 184.29 45.9062 185.012C45.8812 185.332 45.8562 185.651 45.8469 185.973C45.695 190.743 45.4975 195.513 45.1481 200.283C45.1329 200.511 45.1937 200.648 45.4064 200.724C45.4534 200.74 45.5003 200.757 45.547 200.773C45.8927 200.897 46.2336 201.018 46.6217 200.952C48.0497 200.724 49.4929 200.602 50.9361 200.557C51.5228 200.536 52.1095 200.505 52.6962 200.475C54.2363 200.396 55.7764 200.317 57.3166 200.405C57.9546 200.435 58.5167 200.648 58.7749 201.301C59.0332 201.985 58.7294 202.516 58.2736 203.002C57.902 203.404 57.4286 203.674 56.9103 203.97L56.876 203.99C57.5596 204.37 58.1521 204.749 58.5775 205.327C59.5041 206.588 59.0636 207.924 57.59 208.395C57.3739 208.467 57.1509 208.512 56.9256 208.556C56.8182 208.577 56.7104 208.599 56.6026 208.623C57.4077 210.537 56.5266 211.905 54.4453 211.996C53.0933 212.057 51.9843 211.449 50.9057 210.735C49.3041 209.69 47.9329 208.366 46.5646 207.045C46.4014 206.887 46.2383 206.729 46.0748 206.572C45.8469 206.36 45.6494 206.117 45.5431 205.828C45.4519 205.57 45.4519 205.296 45.6494 205.084C45.8469 204.871 46.1052 204.841 46.3786 204.947C46.413 204.963 46.4487 204.978 46.4848 204.993C46.6238 205.051 46.7682 205.112 46.8647 205.22C47.5069 205.874 48.2298 206.414 48.951 206.953C49.2194 207.153 49.4875 207.354 49.7511 207.56C49.9496 207.713 50.1456 207.867 50.3412 208.021C51.1185 208.634 51.8882 209.241 52.7743 209.702C53.2908 209.975 53.8225 210.173 54.415 210.036C54.6428 209.991 54.8099 209.915 54.8403 209.656C54.8707 209.261 54.3238 208.517 53.9136 208.441C53.8496 208.427 53.7855 208.413 53.7216 208.399C53.2397 208.295 52.7647 208.193 52.3489 207.924C52.0755 207.757 51.7716 207.545 51.8172 207.18C51.8628 206.785 52.2122 206.648 52.5616 206.557C53.1633 206.391 53.7758 206.451 54.3809 206.51C54.4938 206.521 54.6065 206.532 54.7188 206.542L54.7359 206.543C55.292 206.589 55.8333 206.632 56.3747 206.557C56.4135 206.551 56.4552 206.548 56.4978 206.544C56.672 206.529 56.8605 206.512 56.9216 206.329C56.9694 206.174 56.848 206.056 56.7348 205.946C56.7041 205.917 56.6741 205.888 56.6481 205.858C56.339 205.523 55.9753 205.254 55.6125 204.985C55.5474 204.937 55.4823 204.889 55.4176 204.841C55.2049 204.673 55.0074 204.643 54.734 204.719C53.944 204.947 53.1389 205.068 52.3185 205.084C51.5286 205.099 50.9513 204.795 50.9057 204.37C50.8601 203.944 51.2551 203.519 51.9843 203.276C52.3186 203.169 52.6566 203.075 52.9947 202.98C53.3327 202.885 53.6706 202.79 54.0048 202.683C54.0829 202.657 54.1609 202.632 54.2391 202.607C54.6171 202.485 54.997 202.363 55.3872 202.136C55.3475 202.119 55.3163 202.105 55.2911 202.093C55.249 202.072 55.224 202.061 55.2049 202.061C54.547 202.089 53.889 202.111 53.2314 202.132C50.7761 202.212 48.3249 202.292 45.8925 202.759C44.2518 203.063 42.9453 202.015 43.0061 200.405C43.082 198.703 43.1884 197.017 43.2947 195.331C43.3344 194.722 43.3882 194.114 43.442 193.507C43.5733 192.024 43.7044 190.544 43.6289 189.057C43.553 187.294 43.6137 185.547 43.8568 183.815C43.9783 182.949 43.9632 182.949 43.0972 183.101C39.4513 183.77 35.7901 184.165 32.0833 183.755C30.1692 183.542 28.2702 183.269 26.3713 182.995C26.0067 182.949 25.8244 182.965 25.9156 183.405C25.9915 183.785 25.9459 184.165 25.8852 184.545C25.8055 185.016 25.7223 185.486 25.6391 185.956C25.3412 187.64 25.0435 189.322 24.9129 191.031C24.8582 191.746 24.7784 192.461 24.6986 193.177C24.4678 195.243 24.2367 197.314 24.6091 199.402C24.6167 199.463 24.6167 199.523 24.6167 199.582C24.6167 199.641 24.6167 199.698 24.6243 199.751C24.685 200.359 24.7914 200.982 25.0344 201.529C25.9307 203.549 27.1765 205.342 28.5589 207.043C28.8475 207.408 29.2425 207.697 29.6983 207.864C29.7214 207.871 29.7446 207.881 29.7677 207.89C29.8809 207.937 29.9923 207.982 30.0932 207.818C30.2907 207.484 30.078 206.74 29.7134 206.557C29.2729 206.329 28.8475 206.086 28.5285 205.691C28.3006 205.387 28.1487 205.053 28.3614 204.689C28.5741 204.324 28.9235 204.339 29.2729 204.37C29.7338 204.421 30.13 204.612 30.5341 204.808C30.6095 204.844 30.6852 204.881 30.7617 204.917C31.4149 205.22 32.0681 205.524 32.8429 205.494C32.6278 205.275 32.4268 205.038 32.2258 204.8C31.4902 203.93 30.7569 203.062 29.3488 203.169C28.9539 203.2 28.5437 203.169 28.1487 203.139C27.6018 203.109 27.0853 203.018 26.6144 202.729C25.9611 202.319 25.9611 201.666 26.6296 201.286C26.7846 201.187 26.9789 201.128 27.1638 201.071L27.2068 201.058C27.8574 200.872 28.5079 200.917 29.1585 200.962C29.3587 200.976 29.5588 200.99 29.759 200.997C29.863 201.002 29.9686 201.009 30.0747 201.015C30.2943 201.029 30.5162 201.043 30.7313 201.043H31.6276C30.4456 200.532 29.2215 200.358 27.9958 200.183C27.9455 200.176 27.8952 200.169 27.8449 200.162L27.747 200.149C26.9581 200.047 26.1564 199.943 25.3687 199.797C25.0041 199.736 24.685 199.493 24.7306 199.053C24.761 198.612 25.0648 198.445 25.475 198.415C25.5302 198.415 25.5813 198.41 25.6305 198.406C25.676 198.403 25.7198 198.399 25.7636 198.399C28.331 198.566 30.8528 198.961 33.2835 199.873C33.8911 200.101 34.3317 200.496 34.3469 201.21C34.3621 201.924 33.9823 202.395 33.3746 202.699C33.2341 202.761 33.0895 202.815 32.9389 202.872C32.7964 202.926 32.6486 202.982 32.4935 203.048C32.8581 203.291 33.1771 203.504 33.4658 203.732C34.0279 204.172 34.514 204.689 34.7267 205.387C35.0305 206.39 34.5747 207.18 33.5417 207.393C33.1467 207.484 32.7518 207.438 32.3568 207.378C32.0985 207.332 31.9618 207.317 31.9922 207.697C32.1441 209.322 30.9895 210.279 29.3944 209.915C28.331 209.671 27.4803 209.064 26.7663 208.274C24.8521 206.147 23.3786 203.777 22.8924 200.906C22.619 199.25 22.6646 197.579 22.7861 195.908C22.9988 192.93 23.2418 189.953 23.728 187.006C23.7541 186.837 23.7791 186.668 23.8042 186.498C23.9688 185.386 24.1345 184.266 24.6091 183.238C24.8066 182.813 24.7762 182.706 24.3204 182.6C23.1659 182.327 21.9961 182.008 20.8568 181.658C19.9453 181.385 19.049 181.066 18.2134 180.595C17.8488 180.397 17.5298 180.109 17.6817 179.638C17.8441 179.165 18.2505 179.181 18.6498 179.196L18.6844 179.197C18.7603 179.197 18.8363 179.212 18.9122 179.228C20.3091 179.388 21.6919 179.624 23.0742 179.861C24.5784 180.118 26.0819 180.376 27.6018 180.534C27.8478 180.559 28.0938 180.584 28.3399 180.608C31.8919 180.968 35.4456 181.328 39.0259 180.732C42.7782 180.109 46.5001 179.395 50.0854 178.043C52.706 177.056 55.2066 175.842 57.7152 174.624C58.0277 174.472 58.3404 174.32 58.6534 174.169C60.1422 173.455 61.5854 172.665 62.8919 171.632C64.9275 170.037 66.9176 168.381 68.8318 166.634C74.1792 161.772 77.8404 155.878 79.8153 148.92C79.9519 148.436 80.0918 147.952 80.2316 147.469C80.9471 144.995 81.6625 142.522 81.9421 139.942C82.4131 135.461 82.2763 130.979 81.6383 126.513C81.0762 122.608 80.0128 118.841 78.4025 115.21C77.2935 112.719 76.1845 110.167 75.9262 107.387C75.8675 106.773 75.7863 106.161 75.705 105.548C75.5549 104.417 75.4044 103.283 75.3945 102.13C75.3794 101.052 75.2578 99.9578 75.1059 98.8944C75.0199 98.2657 74.9328 97.6374 74.8457 97.0093C74.3939 93.7521 73.9429 90.5004 73.6627 87.2273C73.4898 85.169 73.2857 83.1151 73.0817 81.0633C72.9094 79.3292 72.7372 77.5966 72.5841 75.864C72.55 75.4811 72.5145 75.0983 72.4789 74.7154C72.2296 72.0294 71.9802 69.3418 72.2195 66.6427C72.2221 66.6145 72.2246 66.5864 72.2272 66.5583C72.3908 64.7531 72.54 63.1066 74.5894 62.3587C74.5161 62.2365 74.4034 62.2126 74.3068 62.1921C74.2833 62.1871 74.2608 62.1823 74.24 62.1764C72.9487 61.8573 71.8701 61.1585 70.8978 60.2926C69.7129 59.2292 69.2268 57.862 69.3483 56.2972C69.4091 55.5832 69.8344 55.1123 70.518 54.8996C70.9586 54.7629 71.384 54.7933 71.8245 54.8388C72.4929 54.9148 73.131 55.0515 73.769 55.2642C74.1488 55.3857 74.2704 55.2794 74.3615 54.9148C74.5155 54.2395 74.3739 53.5919 74.232 52.9433C74.192 52.7601 74.1519 52.5769 74.1184 52.393C74.1064 52.3232 74.0942 52.2532 74.0819 52.1832ZM92.1205 58.6669C92.4091 58.5909 92.6978 58.4997 92.9256 58.2111C92.4395 57.968 91.9534 57.8921 91.4673 57.9225C88.0795 57.8617 85.2387 56.4033 82.6865 54.3069C81.4408 53.2738 80.2711 52.1649 79.1621 50.9799C78.6456 50.4178 78.0075 50.0076 77.3239 49.6582C76.4884 49.2329 75.6984 49.6582 75.5769 50.5849C75.4559 51.4986 75.6202 52.3884 75.7859 53.2861C75.8076 53.4034 75.8292 53.5208 75.8503 53.6384C75.8611 53.6942 75.8723 53.7497 75.8835 53.8051C75.9668 54.2177 76.0486 54.6227 75.9415 55.0513C75.668 56.0995 74.8173 56.5856 73.6171 56.2818C73.0551 56.145 72.493 56.0387 71.9309 56.0083C71.2321 55.9627 71.0802 56.1602 70.989 56.8287C70.8371 57.9225 71.3384 58.7124 72.0676 59.396C73.45 60.7025 75.2426 61.0823 77.0352 61.4469C78.4785 61.7355 79.6938 61.295 80.8635 60.5506C80.9015 60.5202 80.9395 60.4936 80.9775 60.4671C81.0154 60.4405 81.0534 60.4139 81.0914 60.3835C81.1033 60.3716 81.1151 60.3413 81.1342 60.2923C81.1396 60.2786 81.1455 60.2634 81.1522 60.2468C80.7461 60.1762 80.34 60.1101 79.9348 60.0442C79.2941 59.9399 78.6555 59.8361 78.0227 59.7151C77.4302 59.5935 76.8378 59.4264 76.2605 59.2441C76.0326 59.1682 75.8047 59.0618 75.6072 58.9099C75.273 58.6669 75.0148 58.3478 75.1363 57.8921C75.2578 57.4211 75.6376 57.2388 76.0782 57.1933C76.3972 57.1477 76.7162 57.2236 77.0352 57.2996C79.3448 57.9031 81.6987 58.1608 84.0495 58.4182C84.7758 58.4977 85.5018 58.5772 86.2262 58.6669C87.6238 58.834 89.0214 58.9251 90.4342 58.8947C90.9963 58.8795 91.5736 58.8188 92.1205 58.6669Z" fill="#202124"/>
<path d="M57.9548 53.5632C58.1979 57.1181 58.3346 61.1438 58.3802 65.1544C58.4561 71.6564 58.6688 78.1584 58.9422 84.6756C59.1094 88.5494 59.079 92.4385 58.6384 96.3123C58.4257 98.1809 57.894 99.9127 56.8762 101.553C53.3062 107.341 49.0981 112.583 44.2064 117.277C38.7071 122.563 33.1317 127.774 27.3741 132.787C26.569 133.486 25.7182 134.124 24.8979 134.808C24.6396 135.021 24.5181 134.99 24.351 134.701C23.7889 133.744 23.242 132.803 22.7711 131.8C22.6799 131.618 22.604 131.344 22.3761 131.359C22.1026 131.375 22.0875 131.694 22.0267 131.891C21.6469 133.349 21.738 134.808 22.2849 136.205C22.4369 136.6 22.3457 136.798 22.0419 137.056C18.5934 139.867 14.9018 142.297 10.9672 144.363C8.79482 145.503 6.4705 146.217 4.03985 146.566C2.8701 146.748 1.68516 146.566 0.530598 146.308C-2.41657 145.609 -4.84723 144.044 -6.94366 141.917C-7.14115 141.72 -7.33865 141.507 -7.58171 141.34C-8.03746 141.036 -8.52359 141.006 -8.96414 141.355C-9.38951 141.674 -9.49585 142.13 -9.34393 142.631C-9.19202 143.118 -8.90337 143.513 -8.58435 143.892C-5.57642 147.432 -1.77852 149.453 2.8701 149.544C6.31859 149.604 9.53921 148.526 12.5775 146.916C16.4514 144.849 20.0974 142.464 23.4091 139.578C23.7585 139.274 23.9104 139.35 24.1991 139.669C26.2803 141.948 28.9389 142.464 31.8556 142.054C32.0683 142.024 32.2962 141.917 32.4937 141.811C33.1621 141.416 33.1773 140.687 32.5545 140.231C32.1291 139.927 31.6278 139.806 31.1264 139.654C29.5769 139.198 28.1337 138.545 26.7817 137.694C26.3563 137.421 26.2955 137.269 26.7361 136.919C31.2936 133.304 35.4105 129.217 39.5882 125.176C43.6747 121.242 47.6853 117.231 51.3313 112.886C52.4858 111.504 53.6556 110.121 54.643 108.602C54.7646 108.435 54.8861 108.268 55.0228 108.116C58.9574 103.863 60.8716 98.7886 61.2666 93.0461C61.6312 87.881 61.3273 82.7463 60.9779 77.5963C60.7804 74.8618 60.7804 72.1273 60.6893 69.3777C60.507 64.1366 60.3247 58.8803 59.9297 53.6392C59.8385 52.4087 59.8537 51.1629 60.0816 49.9476C60.1576 49.5071 60.2639 48.8994 59.7778 48.7323C59.3068 48.5652 59.003 49.0665 58.7296 49.4463C57.9548 50.5249 57.9548 51.8162 57.9548 53.5632Z" fill="#202124"/>
<path d="M105.14 164.522C105.155 160.056 104.274 154.739 102.846 149.513C101.129 143.223 99.1846 136.995 96.3286 131.1C93.6549 125.555 90.176 120.573 85.7856 116.228C85.1172 115.575 84.388 114.997 83.6132 114.466C83.3094 114.238 82.9752 114.04 82.5802 114.04C82.3523 114.04 82.0941 114.01 81.9725 114.253C81.8662 114.466 81.9573 114.663 82.0789 114.845C82.2004 115.028 82.3371 115.225 82.489 115.392C89.8114 122.502 94.2929 131.283 97.5439 140.823C99.215 145.73 100.628 150.682 101.494 155.802C102.77 163.367 102.603 170.872 100.962 178.361C100.461 180.64 99.9138 182.919 99.1998 185.152C99.0934 185.471 99.0175 185.821 98.9871 186.155C98.9567 186.504 99.0783 186.838 99.458 186.99C99.8226 187.127 100.081 186.945 100.309 186.686C100.825 186.094 101.175 185.395 101.494 184.681C102.618 182.159 103.21 179.486 103.879 176.842C104.79 173.105 105.079 169.322 105.14 164.522Z" fill="#202124"/>
<path d="M67.8445 49.9925C67.8141 49.5975 67.8141 49.2633 67.6318 48.9746C67.4647 48.7012 67.2216 48.5189 66.8874 48.5341C66.5532 48.5493 66.3253 48.762 66.2038 49.0658C65.9911 49.6279 66.0063 50.1748 66.3557 50.6913C66.5532 50.9799 66.7811 51.2078 67.1457 51.1167C67.5255 51.0407 67.7229 50.7672 67.7837 50.4027C67.8141 50.2507 67.8293 50.0836 67.8445 49.9925Z" fill="#202124"/>
</g>
<path d="M86.5 39L83 42.5" stroke="white" stroke-width="5" stroke-linecap="round"/>
<path d="M75 30.5V36" stroke="white" stroke-width="5" stroke-linecap="round"/>
<path d="M47 41L52 45" stroke="white" stroke-width="5" stroke-linecap="round"/>
<path d="M86.5 39L83 42.5" stroke="#202124" stroke-width="2" stroke-linecap="round"/>
<path d="M75 30.5V36" stroke="#202124" stroke-width="2" stroke-linecap="round"/>
<path d="M47 41L52 45" stroke="#202124" stroke-width="2" stroke-linecap="round"/>
<path d="M57.9171 25.3301L55.8681 15.3779C55.6542 14.339 54.6415 13.668 53.6014 13.876C52.4785 14.1006 51.7976 15.2487 52.1392 16.3418L55.17 26.0403C55.3553 26.6333 55.9045 27.037 56.5258 27.037C57.4255 27.037 58.0985 26.2113 57.9171 25.3301Z" fill="white" stroke="white" stroke-width="3"/>
<path d="M58.8937 32.0819L58.7694 32.1233C57.9522 32.3957 57.5208 33.2886 57.8152 34.0981L58.4033 35.7157C58.6665 36.4392 59.4443 36.8362 60.1846 36.6247C60.9875 36.3953 61.4371 35.5428 61.1731 34.7507L60.5614 32.9158C60.4967 32.7216 60.3877 32.5452 60.2429 32.4004C59.8898 32.0473 59.3674 31.924 58.8937 32.0819Z" fill="white" stroke="white" stroke-width="3"/>
<path d="M57.9171 25.3301L55.8681 15.3779C55.6542 14.339 54.6415 13.668 53.6014 13.876C52.4785 14.1006 51.7976 15.2487 52.1392 16.3418L55.17 26.0403C55.3553 26.6333 55.9045 27.037 56.5258 27.037C57.4255 27.037 58.0985 26.2113 57.9171 25.3301Z" fill="#202124"/>
<path d="M58.8937 32.0819L58.7694 32.1233C57.9522 32.3957 57.5208 33.2886 57.8152 34.0981L58.4033 35.7157C58.6665 36.4392 59.4443 36.8362 60.1846 36.6247C60.9875 36.3953 61.4371 35.5428 61.1731 34.7507L60.5614 32.9158C60.4967 32.7216 60.3877 32.5452 60.2429 32.4004C59.8898 32.0473 59.3674 31.924 58.8937 32.0819Z" fill="#202124"/>
</svg>
