<svg fill="none" height="500" viewBox="0 0 500 500" width="500" xmlns="http://www.w3.org/2000/svg"><path d="m55.5556 27.7778v388.8892c0 15.341 12.4365 27.777 27.7777 27.777 15.3413 0 27.7777-12.436 27.7777-27.777v-333.3337c0-46.0243 37.31-83.3333 83.333-83.3333 46.024 0 83.334 37.309 83.334 83.3333v333.3337c0 15.341 12.436 27.777 27.778 27.777 15.341 0 27.777-12.436 27.777-27.777v-333.3337c0-46.0243 37.31-83.3333 83.334-83.3333 46.023 0 83.333 37.309 83.333 83.3333v388.8887c0 15.341-12.436 27.778-27.778 27.778-15.341 0-27.778-12.437-27.778-27.778v-388.8887c0-15.3418-12.436-27.7777-27.777-27.7777-15.342 0-27.778 12.4359-27.778 27.7777v333.3337c0 46.024-37.31 83.333-83.333 83.333-46.024 0-83.334-37.309-83.334-83.333v-333.3337c0-15.3418-12.436-27.7777-27.778-27.7777-15.341 0-27.777 12.4359-27.777 27.7777v333.3337c0 46.024-37.31 83.333-83.3337 83.333s-83.3333-37.309-83.3333-83.333v-388.8892c0-15.3407 12.4365-27.7778 27.7778-27.7778 15.3412 0 27.7778 12.4371 27.7778 27.7778z" fill="#fff"/></svg>