<?xml version="1.0" encoding="utf-8" ?>
<svg baseProfile="full" height="220px" version="1.1" width="420px" xmlns="http://www.w3.org/2000/svg" xmlns:ev="http://www.w3.org/2001/xml-events" xmlns:xlink="http://www.w3.org/1999/xlink"><defs /><text font-family="Arial" font-size="14" text-anchor="middle" x="110.0" y="10">Input Grid</text><rect fill="white" height="30" stroke="black" stroke-width="1" width="30" x="20" y="20" /><text font-family="Arial" font-size="14" text-anchor="middle" x="35.0" y="41.0">N</text><rect fill="white" height="30" stroke="black" stroke-width="1" width="30" x="50" y="20" /><text font-family="Arial" font-size="14" text-anchor="middle" x="65.0" y="41.0">N</text><rect fill="white" height="30" stroke="black" stroke-width="1" width="30" x="80" y="20" /><text font-family="Arial" font-size="14" text-anchor="middle" x="95.0" y="41.0">N</text><rect fill="white" height="30" stroke="black" stroke-width="1" width="30" x="110" y="20" /><text font-family="Arial" font-size="14" text-anchor="middle" x="125.0" y="41.0">N</text><rect fill="white" height="30" stroke="black" stroke-width="1" width="30" x="140" y="20" /><text font-family="Arial" font-size="14" text-anchor="middle" x="155.0" y="41.0">Q</text><rect fill="white" height="30" stroke="black" stroke-width="1" width="30" x="170" y="20" /><text font-family="Arial" font-size="14" text-anchor="middle" x="185.0" y="41.0">N</text><rect fill="white" height="30" stroke="black" stroke-width="1" width="30" x="20" y="50" /><text font-family="Arial" font-size="14" text-anchor="middle" x="35.0" y="71.0">N</text><rect fill="white" height="30" stroke="black" stroke-width="1" width="30" x="50" y="50" /><text font-family="Arial" font-size="14" text-anchor="middle" x="65.0" y="71.0">O</text><rect fill="white" height="30" stroke="black" stroke-width="1" width="30" x="80" y="50" /><text font-family="Arial" font-size="14" text-anchor="middle" x="95.0" y="71.0">N</text><rect fill="white" height="30" stroke="black" stroke-width="1" width="30" x="110" y="50" /><text font-family="Arial" font-size="14" text-anchor="middle" x="125.0" y="71.0">Y</text><rect fill="white" height="30" stroke="black" stroke-width="1" width="30" x="140" y="50" /><text font-family="Arial" font-size="14" text-anchor="middle" x="155.0" y="71.0">Y</text><rect fill="white" height="30" stroke="black" stroke-width="1" width="30" x="170" y="50" /><text font-family="Arial" font-size="14" text-anchor="middle" x="185.0" y="71.0">N</text><rect fill="white" height="30" stroke="black" stroke-width="1" width="30" x="20" y="80" /><text font-family="Arial" font-size="14" text-anchor="middle" x="35.0" y="101.0">N</text><rect fill="white" height="30" stroke="black" stroke-width="1" width="30" x="50" y="80" /><text font-family="Arial" font-size="14" text-anchor="middle" x="65.0" y="101.0">O</text><rect fill="white" height="30" stroke="black" stroke-width="1" width="30" x="80" y="80" /><text font-family="Arial" font-size="14" text-anchor="middle" x="95.0" y="101.0">N</text><rect fill="white" height="30" stroke="black" stroke-width="1" width="30" x="110" y="80" /><text font-family="Arial" font-size="14" text-anchor="middle" x="125.0" y="101.0">Y</text><rect fill="white" height="30" stroke="black" stroke-width="1" width="30" x="140" y="80" /><text font-family="Arial" font-size="14" text-anchor="middle" x="155.0" y="101.0">Y</text><rect fill="white" height="30" stroke="black" stroke-width="1" width="30" x="170" y="80" /><text font-family="Arial" font-size="14" text-anchor="middle" x="185.0" y="101.0">N</text><rect fill="white" height="30" stroke="black" stroke-width="1" width="30" x="20" y="110" /><text font-family="Arial" font-size="14" text-anchor="middle" x="35.0" y="131.0">N</text><rect fill="white" height="30" stroke="black" stroke-width="1" width="30" x="50" y="110" /><text font-family="Arial" font-size="14" text-anchor="middle" x="65.0" y="131.0">O</text><rect fill="white" height="30" stroke="black" stroke-width="1" width="30" x="80" y="110" /><text font-family="Arial" font-size="14" text-anchor="middle" x="95.0" y="131.0">K</text><rect fill="white" height="30" stroke="black" stroke-width="1" width="30" x="110" y="110" /><text font-family="Arial" font-size="14" text-anchor="middle" x="125.0" y="131.0">Y</text><rect fill="white" height="30" stroke="black" stroke-width="1" width="30" x="140" y="110" /><text font-family="Arial" font-size="14" text-anchor="middle" x="155.0" y="131.0">Y</text><rect fill="white" height="30" stroke="black" stroke-width="1" width="30" x="170" y="110" /><text font-family="Arial" font-size="14" text-anchor="middle" x="185.0" y="131.0">N</text><rect fill="white" height="30" stroke="black" stroke-width="1" width="30" x="20" y="140" /><text font-family="Arial" font-size="14" text-anchor="middle" x="35.0" y="161.0">N</text><rect fill="white" height="30" stroke="black" stroke-width="1" width="30" x="50" y="140" /><text font-family="Arial" font-size="14" text-anchor="middle" x="65.0" y="161.0">N</text><rect fill="white" height="30" stroke="black" stroke-width="1" width="30" x="80" y="140" /><text font-family="Arial" font-size="14" text-anchor="middle" x="95.0" y="161.0">N</text><rect fill="white" height="30" stroke="black" stroke-width="1" width="30" x="110" y="140" /><text font-family="Arial" font-size="14" text-anchor="middle" x="125.0" y="161.0">N</text><rect fill="white" height="30" stroke="black" stroke-width="1" width="30" x="140" y="140" /><text font-family="Arial" font-size="14" text-anchor="middle" x="155.0" y="161.0">N</text><rect fill="white" height="30" stroke="black" stroke-width="1" width="30" x="170" y="140" /><text font-family="Arial" font-size="14" text-anchor="middle" x="185.0" y="161.0">N</text><rect fill="white" height="30" stroke="black" stroke-width="1" width="30" x="20" y="170" /><text font-family="Arial" font-size="14" text-anchor="middle" x="35.0" y="191.0">N</text><rect fill="white" height="30" stroke="black" stroke-width="1" width="30" x="50" y="170" /><text font-family="Arial" font-size="14" text-anchor="middle" x="65.0" y="191.0">N</text><rect fill="white" height="30" stroke="black" stroke-width="1" width="30" x="80" y="170" /><text font-family="Arial" font-size="14" text-anchor="middle" x="95.0" y="191.0">N</text><rect fill="white" height="30" stroke="black" stroke-width="1" width="30" x="110" y="170" /><text font-family="Arial" font-size="14" text-anchor="middle" x="125.0" y="191.0">N</text><rect fill="white" height="30" stroke="black" stroke-width="1" width="30" x="140" y="170" /><text font-family="Arial" font-size="14" text-anchor="middle" x="155.0" y="191.0">N</text><rect fill="white" height="30" stroke="black" stroke-width="1" width="30" x="170" y="170" /><text font-family="Arial" font-size="14" text-anchor="middle" x="185.0" y="191.0">N</text><text font-family="Arial" font-size="14" text-anchor="middle" x="310.0" y="10">Output Grid</text><rect fill="white" height="30" stroke="black" stroke-width="1" width="30" x="220" y="20" /><text font-family="Arial" font-size="14" text-anchor="middle" x="235.0" y="41.0">N</text><rect fill="white" height="30" stroke="black" stroke-width="1" width="30" x="250" y="20" /><text font-family="Arial" font-size="14" text-anchor="middle" x="265.0" y="41.0">N</text><rect fill="white" height="30" stroke="black" stroke-width="1" width="30" x="280" y="20" /><text font-family="Arial" font-size="14" text-anchor="middle" x="295.0" y="41.0">N</text><rect fill="white" height="30" stroke="black" stroke-width="1" width="30" x="310" y="20" /><text font-family="Arial" font-size="14" text-anchor="middle" x="325.0" y="41.0">N</text><rect fill="white" height="30" stroke="black" stroke-width="1" width="30" x="340" y="20" /><text font-family="Arial" font-size="14" text-anchor="middle" x="355.0" y="41.0">Q</text><rect fill="white" height="30" stroke="black" stroke-width="1" width="30" x="370" y="20" /><text font-family="Arial" font-size="14" text-anchor="middle" x="385.0" y="41.0">N</text><rect fill="white" height="30" stroke="black" stroke-width="1" width="30" x="220" y="50" /><text font-family="Arial" font-size="14" text-anchor="middle" x="235.0" y="71.0">N</text><rect fill="white" height="30" stroke="black" stroke-width="1" width="30" x="250" y="50" /><text font-family="Arial" font-size="14" text-anchor="middle" x="265.0" y="71.0">O</text><rect fill="white" height="30" stroke="black" stroke-width="1" width="30" x="280" y="50" /><text font-family="Arial" font-size="14" text-anchor="middle" x="295.0" y="71.0">N</text><rect fill="white" height="30" stroke="black" stroke-width="1" width="30" x="310" y="50" /><text font-family="Arial" font-size="14" text-anchor="middle" x="325.0" y="71.0">Y</text><rect fill="white" height="30" stroke="black" stroke-width="1" width="30" x="340" y="50" /><text font-family="Arial" font-size="14" text-anchor="middle" x="355.0" y="71.0">Y</text><rect fill="white" height="30" stroke="black" stroke-width="1" width="30" x="370" y="50" /><text font-family="Arial" font-size="14" text-anchor="middle" x="385.0" y="71.0">N</text><rect fill="white" height="30" stroke="black" stroke-width="1" width="30" x="220" y="80" /><text font-family="Arial" font-size="14" text-anchor="middle" x="235.0" y="101.0">N</text><rect fill="white" height="30" stroke="black" stroke-width="1" width="30" x="250" y="80" /><text font-family="Arial" font-size="14" text-anchor="middle" x="265.0" y="101.0">O</text><rect fill="white" height="30" stroke="black" stroke-width="1" width="30" x="280" y="80" /><text font-family="Arial" font-size="14" text-anchor="middle" x="295.0" y="101.0">N</text><rect fill="white" height="30" stroke="black" stroke-width="1" width="30" x="310" y="80" /><text font-family="Arial" font-size="14" text-anchor="middle" x="325.0" y="101.0">Y</text><rect fill="white" height="30" stroke="black" stroke-width="1" width="30" x="340" y="80" /><text font-family="Arial" font-size="14" text-anchor="middle" x="355.0" y="101.0">Y</text><rect fill="white" height="30" stroke="black" stroke-width="1" width="30" x="370" y="80" /><text font-family="Arial" font-size="14" text-anchor="middle" x="385.0" y="101.0">N</text><rect fill="white" height="30" stroke="black" stroke-width="1" width="30" x="220" y="110" /><text font-family="Arial" font-size="14" text-anchor="middle" x="235.0" y="131.0">N</text><rect fill="white" height="30" stroke="black" stroke-width="1" width="30" x="250" y="110" /><text font-family="Arial" font-size="14" text-anchor="middle" x="265.0" y="131.0">O</text><rect fill="white" height="30" stroke="black" stroke-width="1" width="30" x="280" y="110" /><text font-family="Arial" font-size="14" text-anchor="middle" x="295.0" y="131.0">K</text><rect fill="white" height="30" stroke="black" stroke-width="1" width="30" x="310" y="110" /><text font-family="Arial" font-size="14" text-anchor="middle" x="325.0" y="131.0">Y</text><rect fill="white" height="30" stroke="black" stroke-width="1" width="30" x="340" y="110" /><text font-family="Arial" font-size="14" text-anchor="middle" x="355.0" y="131.0">Y</text><rect fill="white" height="30" stroke="black" stroke-width="1" width="30" x="370" y="110" /><text font-family="Arial" font-size="14" text-anchor="middle" x="385.0" y="131.0">N</text><rect fill="white" height="30" stroke="black" stroke-width="1" width="30" x="220" y="140" /><text font-family="Arial" font-size="14" text-anchor="middle" x="235.0" y="161.0">N</text><rect fill="white" height="30" stroke="black" stroke-width="1" width="30" x="250" y="140" /><text font-family="Arial" font-size="14" text-anchor="middle" x="265.0" y="161.0">N</text><rect fill="white" height="30" stroke="black" stroke-width="1" width="30" x="280" y="140" /><text font-family="Arial" font-size="14" text-anchor="middle" x="295.0" y="161.0">N</text><rect fill="white" height="30" stroke="black" stroke-width="1" width="30" x="310" y="140" /><text font-family="Arial" font-size="14" text-anchor="middle" x="325.0" y="161.0">N</text><rect fill="white" height="30" stroke="black" stroke-width="1" width="30" x="340" y="140" /><text font-family="Arial" font-size="14" text-anchor="middle" x="355.0" y="161.0">N</text><rect fill="white" height="30" stroke="black" stroke-width="1" width="30" x="370" y="140" /><text font-family="Arial" font-size="14" text-anchor="middle" x="385.0" y="161.0">N</text><rect fill="white" height="30" stroke="black" stroke-width="1" width="30" x="220" y="170" /><text font-family="Arial" font-size="14" text-anchor="middle" x="235.0" y="191.0">N</text><rect fill="white" height="30" stroke="black" stroke-width="1" width="30" x="250" y="170" /><text font-family="Arial" font-size="14" text-anchor="middle" x="265.0" y="191.0">N</text><rect fill="white" height="30" stroke="black" stroke-width="1" width="30" x="280" y="170" /><text font-family="Arial" font-size="14" text-anchor="middle" x="295.0" y="191.0">N</text><rect fill="white" height="30" stroke="black" stroke-width="1" width="30" x="310" y="170" /><text font-family="Arial" font-size="14" text-anchor="middle" x="325.0" y="191.0">N</text><rect fill="white" height="30" stroke="black" stroke-width="1" width="30" x="340" y="170" /><text font-family="Arial" font-size="14" text-anchor="middle" x="355.0" y="191.0">N</text><rect fill="white" height="30" stroke="black" stroke-width="1" width="30" x="370" y="170" /><text font-family="Arial" font-size="14" text-anchor="middle" x="385.0" y="191.0">N</text><text font-family="Arial" font-size="12" x="20" y="210">Model: phi3:mini, Response: none, Correct: none</text></svg>