<?xml version="1.0" encoding="utf-8" ?>
<svg baseProfile="full" height="130px" version="1.1" width="240px" xmlns="http://www.w3.org/2000/svg" xmlns:ev="http://www.w3.org/2001/xml-events" xmlns:xlink="http://www.w3.org/1999/xlink"><defs /><text font-family="Arial" font-size="14" text-anchor="middle" x="65.0" y="10">Input Grid</text><rect fill="white" height="30" stroke="black" stroke-width="1" width="30" x="20" y="20" /><text font-family="Arial" font-size="14" text-anchor="middle" x="35.0" y="41.0">J</text><rect fill="white" height="30" stroke="black" stroke-width="1" width="30" x="50" y="20" /><text font-family="Arial" font-size="14" text-anchor="middle" x="65.0" y="41.0">J</text><rect fill="white" height="30" stroke="black" stroke-width="1" width="30" x="80" y="20" /><text font-family="Arial" font-size="14" text-anchor="middle" x="95.0" y="41.0">J</text><rect fill="white" height="30" stroke="black" stroke-width="1" width="30" x="20" y="50" /><text font-family="Arial" font-size="14" text-anchor="middle" x="35.0" y="71.0">J</text><rect fill="white" height="30" stroke="black" stroke-width="1" width="30" x="50" y="50" /><text font-family="Arial" font-size="14" text-anchor="middle" x="65.0" y="71.0">J</text><rect fill="white" height="30" stroke="black" stroke-width="1" width="30" x="80" y="50" /><text font-family="Arial" font-size="14" text-anchor="middle" x="95.0" y="71.0">F</text><rect fill="white" height="30" stroke="black" stroke-width="1" width="30" x="20" y="80" /><text font-family="Arial" font-size="14" text-anchor="middle" x="35.0" y="101.0">J</text><rect fill="white" height="30" stroke="black" stroke-width="1" width="30" x="50" y="80" /><text font-family="Arial" font-size="14" text-anchor="middle" x="65.0" y="101.0">T</text><rect fill="white" height="30" stroke="black" stroke-width="1" width="30" x="80" y="80" /><text font-family="Arial" font-size="14" text-anchor="middle" x="95.0" y="101.0">J</text><text font-family="Arial" font-size="14" text-anchor="middle" x="175.0" y="10">Output Grid</text><rect fill="white" height="30" stroke="black" stroke-width="1" width="30" x="130" y="20" /><text font-family="Arial" font-size="14" text-anchor="middle" x="145.0" y="41.0">J</text><rect fill="white" height="30" stroke="black" stroke-width="1" width="30" x="160" y="20" /><text font-family="Arial" font-size="14" text-anchor="middle" x="175.0" y="41.0">T</text><rect fill="white" height="30" stroke="black" stroke-width="1" width="30" x="190" y="20" /><text font-family="Arial" font-size="14" text-anchor="middle" x="205.0" y="41.0">J</text><rect fill="white" height="30" stroke="black" stroke-width="1" width="30" x="130" y="50" /><text font-family="Arial" font-size="14" text-anchor="middle" x="145.0" y="71.0">F</text><rect fill="white" height="30" stroke="black" stroke-width="1" width="30" x="160" y="50" /><text font-family="Arial" font-size="14" text-anchor="middle" x="175.0" y="71.0">J</text><rect fill="white" height="30" stroke="black" stroke-width="1" width="30" x="190" y="50" /><text font-family="Arial" font-size="14" text-anchor="middle" x="205.0" y="71.0">J</text><rect fill="white" height="30" stroke="black" stroke-width="1" width="30" x="130" y="80" /><text font-family="Arial" font-size="14" text-anchor="middle" x="145.0" y="101.0">J</text><rect fill="white" height="30" stroke="black" stroke-width="1" width="30" x="160" y="80" /><text font-family="Arial" font-size="14" text-anchor="middle" x="175.0" y="101.0">J</text><rect fill="white" height="30" stroke="black" stroke-width="1" width="30" x="190" y="80" /><text font-family="Arial" font-size="14" text-anchor="middle" x="205.0" y="101.0">J</text><text font-family="Arial" font-size="12" x="20" y="120">Model: phi3:mini, Response: full, Correct: full</text></svg>