<?xml version="1.0" encoding="utf-8" ?>
<svg baseProfile="full" height="310px" version="1.1" width="600px" xmlns="http://www.w3.org/2000/svg" xmlns:ev="http://www.w3.org/2001/xml-events" xmlns:xlink="http://www.w3.org/1999/xlink"><defs /><text font-family="Arial" font-size="14" text-anchor="middle" x="155.0" y="10">Input Grid</text><rect fill="white" height="30" stroke="black" stroke-width="1" width="30" x="20" y="20" /><text font-family="Arial" font-size="14" text-anchor="middle" x="35.0" y="41.0">?</text><rect fill="white" height="30" stroke="black" stroke-width="1" width="30" x="50" y="20" /><text font-family="Arial" font-size="14" text-anchor="middle" x="65.0" y="41.0">?</text><rect fill="white" height="30" stroke="black" stroke-width="1" width="30" x="80" y="20" /><text font-family="Arial" font-size="14" text-anchor="middle" x="95.0" y="41.0">+</text><rect fill="white" height="30" stroke="black" stroke-width="1" width="30" x="110" y="20" /><text font-family="Arial" font-size="14" text-anchor="middle" x="125.0" y="41.0">+</text><rect fill="white" height="30" stroke="black" stroke-width="1" width="30" x="140" y="20" /><text font-family="Arial" font-size="14" text-anchor="middle" x="155.0" y="41.0">+</text><rect fill="white" height="30" stroke="black" stroke-width="1" width="30" x="170" y="20" /><text font-family="Arial" font-size="14" text-anchor="middle" x="185.0" y="41.0">+</text><rect fill="white" height="30" stroke="black" stroke-width="1" width="30" x="200" y="20" /><text font-family="Arial" font-size="14" text-anchor="middle" x="215.0" y="41.0">?</text><rect fill="white" height="30" stroke="black" stroke-width="1" width="30" x="230" y="20" /><text font-family="Arial" font-size="14" text-anchor="middle" x="245.0" y="41.0">?</text><rect fill="white" height="30" stroke="black" stroke-width="1" width="30" x="260" y="20" /><text font-family="Arial" font-size="14" text-anchor="middle" x="275.0" y="41.0">?</text><rect fill="white" height="30" stroke="black" stroke-width="1" width="30" x="20" y="50" /><text font-family="Arial" font-size="14" text-anchor="middle" x="35.0" y="71.0">?</text><rect fill="white" height="30" stroke="black" stroke-width="1" width="30" x="50" y="50" /><text font-family="Arial" font-size="14" text-anchor="middle" x="65.0" y="71.0">?</text><rect fill="white" height="30" stroke="black" stroke-width="1" width="30" x="80" y="50" /><text font-family="Arial" font-size="14" text-anchor="middle" x="95.0" y="71.0">+</text><rect fill="white" height="30" stroke="black" stroke-width="1" width="30" x="110" y="50" /><text font-family="Arial" font-size="14" text-anchor="middle" x="125.0" y="71.0">+</text><rect fill="white" height="30" stroke="black" stroke-width="1" width="30" x="140" y="50" /><text font-family="Arial" font-size="14" text-anchor="middle" x="155.0" y="71.0">+</text><rect fill="white" height="30" stroke="black" stroke-width="1" width="30" x="170" y="50" /><text font-family="Arial" font-size="14" text-anchor="middle" x="185.0" y="71.0">+</text><rect fill="white" height="30" stroke="black" stroke-width="1" width="30" x="200" y="50" /><text font-family="Arial" font-size="14" text-anchor="middle" x="215.0" y="71.0">?</text><rect fill="white" height="30" stroke="black" stroke-width="1" width="30" x="230" y="50" /><text font-family="Arial" font-size="14" text-anchor="middle" x="245.0" y="71.0">?</text><rect fill="white" height="30" stroke="black" stroke-width="1" width="30" x="260" y="50" /><text font-family="Arial" font-size="14" text-anchor="middle" x="275.0" y="71.0">?</text><rect fill="white" height="30" stroke="black" stroke-width="1" width="30" x="20" y="80" /><text font-family="Arial" font-size="14" text-anchor="middle" x="35.0" y="101.0">?</text><rect fill="white" height="30" stroke="black" stroke-width="1" width="30" x="50" y="80" /><text font-family="Arial" font-size="14" text-anchor="middle" x="65.0" y="101.0">?</text><rect fill="white" height="30" stroke="black" stroke-width="1" width="30" x="80" y="80" /><text font-family="Arial" font-size="14" text-anchor="middle" x="95.0" y="101.0">+</text><rect fill="white" height="30" stroke="black" stroke-width="1" width="30" x="110" y="80" /><text font-family="Arial" font-size="14" text-anchor="middle" x="125.0" y="101.0">+</text><rect fill="white" height="30" stroke="black" stroke-width="1" width="30" x="140" y="80" /><text font-family="Arial" font-size="14" text-anchor="middle" x="155.0" y="101.0">+</text><rect fill="white" height="30" stroke="black" stroke-width="1" width="30" x="170" y="80" /><text font-family="Arial" font-size="14" text-anchor="middle" x="185.0" y="101.0">+</text><rect fill="white" height="30" stroke="black" stroke-width="1" width="30" x="200" y="80" /><text font-family="Arial" font-size="14" text-anchor="middle" x="215.0" y="101.0">?</text><rect fill="white" height="30" stroke="black" stroke-width="1" width="30" x="230" y="80" /><text font-family="Arial" font-size="14" text-anchor="middle" x="245.0" y="101.0">?</text><rect fill="white" height="30" stroke="black" stroke-width="1" width="30" x="260" y="80" /><text font-family="Arial" font-size="14" text-anchor="middle" x="275.0" y="101.0">?</text><rect fill="white" height="30" stroke="black" stroke-width="1" width="30" x="20" y="110" /><text font-family="Arial" font-size="14" text-anchor="middle" x="35.0" y="131.0">?</text><rect fill="white" height="30" stroke="black" stroke-width="1" width="30" x="50" y="110" /><text font-family="Arial" font-size="14" text-anchor="middle" x="65.0" y="131.0">?</text><rect fill="white" height="30" stroke="black" stroke-width="1" width="30" x="80" y="110" /><text font-family="Arial" font-size="14" text-anchor="middle" x="95.0" y="131.0">?</text><rect fill="white" height="30" stroke="black" stroke-width="1" width="30" x="110" y="110" /><text font-family="Arial" font-size="14" text-anchor="middle" x="125.0" y="131.0">?</text><rect fill="white" height="30" stroke="black" stroke-width="1" width="30" x="140" y="110" /><text font-family="Arial" font-size="14" text-anchor="middle" x="155.0" y="131.0">?</text><rect fill="white" height="30" stroke="black" stroke-width="1" width="30" x="170" y="110" /><text font-family="Arial" font-size="14" text-anchor="middle" x="185.0" y="131.0">?</text><rect fill="white" height="30" stroke="black" stroke-width="1" width="30" x="200" y="110" /><text font-family="Arial" font-size="14" text-anchor="middle" x="215.0" y="131.0">?</text><rect fill="white" height="30" stroke="black" stroke-width="1" width="30" x="230" y="110" /><text font-family="Arial" font-size="14" text-anchor="middle" x="245.0" y="131.0">%</text><rect fill="white" height="30" stroke="black" stroke-width="1" width="30" x="260" y="110" /><text font-family="Arial" font-size="14" text-anchor="middle" x="275.0" y="131.0">@</text><rect fill="white" height="30" stroke="black" stroke-width="1" width="30" x="20" y="140" /><text font-family="Arial" font-size="14" text-anchor="middle" x="35.0" y="161.0">?</text><rect fill="white" height="30" stroke="black" stroke-width="1" width="30" x="50" y="140" /><text font-family="Arial" font-size="14" text-anchor="middle" x="65.0" y="161.0">?</text><rect fill="white" height="30" stroke="black" stroke-width="1" width="30" x="80" y="140" /><text font-family="Arial" font-size="14" text-anchor="middle" x="95.0" y="161.0">=</text><rect fill="white" height="30" stroke="black" stroke-width="1" width="30" x="110" y="140" /><text font-family="Arial" font-size="14" text-anchor="middle" x="125.0" y="161.0">=</text><rect fill="white" height="30" stroke="black" stroke-width="1" width="30" x="140" y="140" /><text font-family="Arial" font-size="14" text-anchor="middle" x="155.0" y="161.0">=</text><rect fill="white" height="30" stroke="black" stroke-width="1" width="30" x="170" y="140" /><text font-family="Arial" font-size="14" text-anchor="middle" x="185.0" y="161.0">=</text><rect fill="white" height="30" stroke="black" stroke-width="1" width="30" x="200" y="140" /><text font-family="Arial" font-size="14" text-anchor="middle" x="215.0" y="161.0">?</text><rect fill="white" height="30" stroke="black" stroke-width="1" width="30" x="230" y="140" /><text font-family="Arial" font-size="14" text-anchor="middle" x="245.0" y="161.0">?</text><rect fill="white" height="30" stroke="black" stroke-width="1" width="30" x="260" y="140" /><text font-family="Arial" font-size="14" text-anchor="middle" x="275.0" y="161.0">@</text><rect fill="white" height="30" stroke="black" stroke-width="1" width="30" x="20" y="170" /><text font-family="Arial" font-size="14" text-anchor="middle" x="35.0" y="191.0">?</text><rect fill="white" height="30" stroke="black" stroke-width="1" width="30" x="50" y="170" /><text font-family="Arial" font-size="14" text-anchor="middle" x="65.0" y="191.0">?</text><rect fill="white" height="30" stroke="black" stroke-width="1" width="30" x="80" y="170" /><text font-family="Arial" font-size="14" text-anchor="middle" x="95.0" y="191.0">=</text><rect fill="white" height="30" stroke="black" stroke-width="1" width="30" x="110" y="170" /><text font-family="Arial" font-size="14" text-anchor="middle" x="125.0" y="191.0">=</text><rect fill="white" height="30" stroke="black" stroke-width="1" width="30" x="140" y="170" /><text font-family="Arial" font-size="14" text-anchor="middle" x="155.0" y="191.0">=</text><rect fill="white" height="30" stroke="black" stroke-width="1" width="30" x="170" y="170" /><text font-family="Arial" font-size="14" text-anchor="middle" x="185.0" y="191.0">=</text><rect fill="white" height="30" stroke="black" stroke-width="1" width="30" x="200" y="170" /><text font-family="Arial" font-size="14" text-anchor="middle" x="215.0" y="191.0">?</text><rect fill="white" height="30" stroke="black" stroke-width="1" width="30" x="230" y="170" /><text font-family="Arial" font-size="14" text-anchor="middle" x="245.0" y="191.0">?</text><rect fill="white" height="30" stroke="black" stroke-width="1" width="30" x="260" y="170" /><text font-family="Arial" font-size="14" text-anchor="middle" x="275.0" y="191.0">@</text><rect fill="white" height="30" stroke="black" stroke-width="1" width="30" x="20" y="200" /><text font-family="Arial" font-size="14" text-anchor="middle" x="35.0" y="221.0">$</text><rect fill="white" height="30" stroke="black" stroke-width="1" width="30" x="50" y="200" /><text font-family="Arial" font-size="14" text-anchor="middle" x="65.0" y="221.0">$</text><rect fill="white" height="30" stroke="black" stroke-width="1" width="30" x="80" y="200" /><text font-family="Arial" font-size="14" text-anchor="middle" x="95.0" y="221.0">$</text><rect fill="white" height="30" stroke="black" stroke-width="1" width="30" x="110" y="200" /><text font-family="Arial" font-size="14" text-anchor="middle" x="125.0" y="221.0">$</text><rect fill="white" height="30" stroke="black" stroke-width="1" width="30" x="140" y="200" /><text font-family="Arial" font-size="14" text-anchor="middle" x="155.0" y="221.0">=</text><rect fill="white" height="30" stroke="black" stroke-width="1" width="30" x="170" y="200" /><text font-family="Arial" font-size="14" text-anchor="middle" x="185.0" y="221.0">=</text><rect fill="white" height="30" stroke="black" stroke-width="1" width="30" x="200" y="200" /><text font-family="Arial" font-size="14" text-anchor="middle" x="215.0" y="221.0">?</text><rect fill="white" height="30" stroke="black" stroke-width="1" width="30" x="230" y="200" /><text font-family="Arial" font-size="14" text-anchor="middle" x="245.0" y="221.0">?</text><rect fill="white" height="30" stroke="black" stroke-width="1" width="30" x="260" y="200" /><text font-family="Arial" font-size="14" text-anchor="middle" x="275.0" y="221.0">?</text><rect fill="white" height="30" stroke="black" stroke-width="1" width="30" x="20" y="230" /><text font-family="Arial" font-size="14" text-anchor="middle" x="35.0" y="251.0">?</text><rect fill="white" height="30" stroke="black" stroke-width="1" width="30" x="50" y="230" /><text font-family="Arial" font-size="14" text-anchor="middle" x="65.0" y="251.0">?</text><rect fill="white" height="30" stroke="black" stroke-width="1" width="30" x="80" y="230" /><text font-family="Arial" font-size="14" text-anchor="middle" x="95.0" y="251.0">=</text><rect fill="white" height="30" stroke="black" stroke-width="1" width="30" x="110" y="230" /><text font-family="Arial" font-size="14" text-anchor="middle" x="125.0" y="251.0">=</text><rect fill="white" height="30" stroke="black" stroke-width="1" width="30" x="140" y="230" /><text font-family="Arial" font-size="14" text-anchor="middle" x="155.0" y="251.0">=</text><rect fill="white" height="30" stroke="black" stroke-width="1" width="30" x="170" y="230" /><text font-family="Arial" font-size="14" text-anchor="middle" x="185.0" y="251.0">=</text><rect fill="white" height="30" stroke="black" stroke-width="1" width="30" x="200" y="230" /><text font-family="Arial" font-size="14" text-anchor="middle" x="215.0" y="251.0">?</text><rect fill="white" height="30" stroke="black" stroke-width="1" width="30" x="230" y="230" /><text font-family="Arial" font-size="14" text-anchor="middle" x="245.0" y="251.0">?</text><rect fill="white" height="30" stroke="black" stroke-width="1" width="30" x="260" y="230" /><text font-family="Arial" font-size="14" text-anchor="middle" x="275.0" y="251.0">?</text><rect fill="white" height="30" stroke="black" stroke-width="1" width="30" x="20" y="260" /><text font-family="Arial" font-size="14" text-anchor="middle" x="35.0" y="281.0">?</text><rect fill="white" height="30" stroke="black" stroke-width="1" width="30" x="50" y="260" /><text font-family="Arial" font-size="14" text-anchor="middle" x="65.0" y="281.0">?</text><rect fill="white" height="30" stroke="black" stroke-width="1" width="30" x="80" y="260" /><text font-family="Arial" font-size="14" text-anchor="middle" x="95.0" y="281.0">?</text><rect fill="white" height="30" stroke="black" stroke-width="1" width="30" x="110" y="260" /><text font-family="Arial" font-size="14" text-anchor="middle" x="125.0" y="281.0">?</text><rect fill="white" height="30" stroke="black" stroke-width="1" width="30" x="140" y="260" /><text font-family="Arial" font-size="14" text-anchor="middle" x="155.0" y="281.0">?</text><rect fill="white" height="30" stroke="black" stroke-width="1" width="30" x="170" y="260" /><text font-family="Arial" font-size="14" text-anchor="middle" x="185.0" y="281.0">?</text><rect fill="white" height="30" stroke="black" stroke-width="1" width="30" x="200" y="260" /><text font-family="Arial" font-size="14" text-anchor="middle" x="215.0" y="281.0">?</text><rect fill="white" height="30" stroke="black" stroke-width="1" width="30" x="230" y="260" /><text font-family="Arial" font-size="14" text-anchor="middle" x="245.0" y="281.0">?</text><rect fill="white" height="30" stroke="black" stroke-width="1" width="30" x="260" y="260" /><text font-family="Arial" font-size="14" text-anchor="middle" x="275.0" y="281.0">?</text><text font-family="Arial" font-size="14" text-anchor="middle" x="445.0" y="10">Output Grid</text><rect fill="white" height="30" stroke="black" stroke-width="1" width="30" x="310" y="20" /><text font-family="Arial" font-size="14" text-anchor="middle" x="325.0" y="41.0">?</text><rect fill="white" height="30" stroke="black" stroke-width="1" width="30" x="340" y="20" /><text font-family="Arial" font-size="14" text-anchor="middle" x="355.0" y="41.0">?</text><rect fill="white" height="30" stroke="black" stroke-width="1" width="30" x="370" y="20" /><text font-family="Arial" font-size="14" text-anchor="middle" x="385.0" y="41.0">?</text><rect fill="white" height="30" stroke="black" stroke-width="1" width="30" x="400" y="20" /><text font-family="Arial" font-size="14" text-anchor="middle" x="415.0" y="41.0">@</text><rect fill="white" height="30" stroke="black" stroke-width="1" width="30" x="430" y="20" /><text font-family="Arial" font-size="14" text-anchor="middle" x="445.0" y="41.0">@</text><rect fill="white" height="30" stroke="black" stroke-width="1" width="30" x="460" y="20" /><text font-family="Arial" font-size="14" text-anchor="middle" x="475.0" y="41.0">@</text><rect fill="white" height="30" stroke="black" stroke-width="1" width="30" x="490" y="20" /><text font-family="Arial" font-size="14" text-anchor="middle" x="505.0" y="41.0">?</text><rect fill="white" height="30" stroke="black" stroke-width="1" width="30" x="520" y="20" /><text font-family="Arial" font-size="14" text-anchor="middle" x="535.0" y="41.0">?</text><rect fill="white" height="30" stroke="black" stroke-width="1" width="30" x="550" y="20" /><text font-family="Arial" font-size="14" text-anchor="middle" x="565.0" y="41.0">?</text><rect fill="white" height="30" stroke="black" stroke-width="1" width="30" x="310" y="50" /><text font-family="Arial" font-size="14" text-anchor="middle" x="325.0" y="71.0">?</text><rect fill="white" height="30" stroke="black" stroke-width="1" width="30" x="340" y="50" /><text font-family="Arial" font-size="14" text-anchor="middle" x="355.0" y="71.0">?</text><rect fill="white" height="30" stroke="black" stroke-width="1" width="30" x="370" y="50" /><text font-family="Arial" font-size="14" text-anchor="middle" x="385.0" y="71.0">?</text><rect fill="white" height="30" stroke="black" stroke-width="1" width="30" x="400" y="50" /><text font-family="Arial" font-size="14" text-anchor="middle" x="415.0" y="71.0">%</text><rect fill="white" height="30" stroke="black" stroke-width="1" width="30" x="430" y="50" /><text font-family="Arial" font-size="14" text-anchor="middle" x="445.0" y="71.0">?</text><rect fill="white" height="30" stroke="black" stroke-width="1" width="30" x="460" y="50" /><text font-family="Arial" font-size="14" text-anchor="middle" x="475.0" y="71.0">?</text><rect fill="white" height="30" stroke="black" stroke-width="1" width="30" x="490" y="50" /><text font-family="Arial" font-size="14" text-anchor="middle" x="505.0" y="71.0">?</text><rect fill="white" height="30" stroke="black" stroke-width="1" width="30" x="520" y="50" /><text font-family="Arial" font-size="14" text-anchor="middle" x="535.0" y="71.0">?</text><rect fill="white" height="30" stroke="black" stroke-width="1" width="30" x="550" y="50" /><text font-family="Arial" font-size="14" text-anchor="middle" x="565.0" y="71.0">?</text><rect fill="white" height="30" stroke="black" stroke-width="1" width="30" x="310" y="80" /><text font-family="Arial" font-size="14" text-anchor="middle" x="325.0" y="101.0">?</text><rect fill="white" height="30" stroke="black" stroke-width="1" width="30" x="340" y="80" /><text font-family="Arial" font-size="14" text-anchor="middle" x="355.0" y="101.0">?</text><rect fill="white" height="30" stroke="black" stroke-width="1" width="30" x="370" y="80" /><text font-family="Arial" font-size="14" text-anchor="middle" x="385.0" y="101.0">?</text><rect fill="white" height="30" stroke="black" stroke-width="1" width="30" x="400" y="80" /><text font-family="Arial" font-size="14" text-anchor="middle" x="415.0" y="101.0">?</text><rect fill="white" height="30" stroke="black" stroke-width="1" width="30" x="430" y="80" /><text font-family="Arial" font-size="14" text-anchor="middle" x="445.0" y="101.0">?</text><rect fill="white" height="30" stroke="black" stroke-width="1" width="30" x="460" y="80" /><text font-family="Arial" font-size="14" text-anchor="middle" x="475.0" y="101.0">?</text><rect fill="white" height="30" stroke="black" stroke-width="1" width="30" x="490" y="80" /><text font-family="Arial" font-size="14" text-anchor="middle" x="505.0" y="101.0">?</text><rect fill="white" height="30" stroke="black" stroke-width="1" width="30" x="520" y="80" /><text font-family="Arial" font-size="14" text-anchor="middle" x="535.0" y="101.0">?</text><rect fill="white" height="30" stroke="black" stroke-width="1" width="30" x="550" y="80" /><text font-family="Arial" font-size="14" text-anchor="middle" x="565.0" y="101.0">?</text><rect fill="white" height="30" stroke="black" stroke-width="1" width="30" x="310" y="110" /><text font-family="Arial" font-size="14" text-anchor="middle" x="325.0" y="131.0">+</text><rect fill="white" height="30" stroke="black" stroke-width="1" width="30" x="340" y="110" /><text font-family="Arial" font-size="14" text-anchor="middle" x="355.0" y="131.0">+</text><rect fill="white" height="30" stroke="black" stroke-width="1" width="30" x="370" y="110" /><text font-family="Arial" font-size="14" text-anchor="middle" x="385.0" y="131.0">+</text><rect fill="white" height="30" stroke="black" stroke-width="1" width="30" x="400" y="110" /><text font-family="Arial" font-size="14" text-anchor="middle" x="415.0" y="131.0">?</text><rect fill="white" height="30" stroke="black" stroke-width="1" width="30" x="430" y="110" /><text font-family="Arial" font-size="14" text-anchor="middle" x="445.0" y="131.0">=</text><rect fill="white" height="30" stroke="black" stroke-width="1" width="30" x="460" y="110" /><text font-family="Arial" font-size="14" text-anchor="middle" x="475.0" y="131.0">=</text><rect fill="white" height="30" stroke="black" stroke-width="1" width="30" x="490" y="110" /><text font-family="Arial" font-size="14" text-anchor="middle" x="505.0" y="131.0">=</text><rect fill="white" height="30" stroke="black" stroke-width="1" width="30" x="520" y="110" /><text font-family="Arial" font-size="14" text-anchor="middle" x="535.0" y="131.0">=</text><rect fill="white" height="30" stroke="black" stroke-width="1" width="30" x="550" y="110" /><text font-family="Arial" font-size="14" text-anchor="middle" x="565.0" y="131.0">?</text><rect fill="white" height="30" stroke="black" stroke-width="1" width="30" x="310" y="140" /><text font-family="Arial" font-size="14" text-anchor="middle" x="325.0" y="161.0">+</text><rect fill="white" height="30" stroke="black" stroke-width="1" width="30" x="340" y="140" /><text font-family="Arial" font-size="14" text-anchor="middle" x="355.0" y="161.0">+</text><rect fill="white" height="30" stroke="black" stroke-width="1" width="30" x="370" y="140" /><text font-family="Arial" font-size="14" text-anchor="middle" x="385.0" y="161.0">+</text><rect fill="white" height="30" stroke="black" stroke-width="1" width="30" x="400" y="140" /><text font-family="Arial" font-size="14" text-anchor="middle" x="415.0" y="161.0">?</text><rect fill="white" height="30" stroke="black" stroke-width="1" width="30" x="430" y="140" /><text font-family="Arial" font-size="14" text-anchor="middle" x="445.0" y="161.0">=</text><rect fill="white" height="30" stroke="black" stroke-width="1" width="30" x="460" y="140" /><text font-family="Arial" font-size="14" text-anchor="middle" x="475.0" y="161.0">=</text><rect fill="white" height="30" stroke="black" stroke-width="1" width="30" x="490" y="140" /><text font-family="Arial" font-size="14" text-anchor="middle" x="505.0" y="161.0">=</text><rect fill="white" height="30" stroke="black" stroke-width="1" width="30" x="520" y="140" /><text font-family="Arial" font-size="14" text-anchor="middle" x="535.0" y="161.0">=</text><rect fill="white" height="30" stroke="black" stroke-width="1" width="30" x="550" y="140" /><text font-family="Arial" font-size="14" text-anchor="middle" x="565.0" y="161.0">?</text><rect fill="white" height="30" stroke="black" stroke-width="1" width="30" x="310" y="170" /><text font-family="Arial" font-size="14" text-anchor="middle" x="325.0" y="191.0">+</text><rect fill="white" height="30" stroke="black" stroke-width="1" width="30" x="340" y="170" /><text font-family="Arial" font-size="14" text-anchor="middle" x="355.0" y="191.0">+</text><rect fill="white" height="30" stroke="black" stroke-width="1" width="30" x="370" y="170" /><text font-family="Arial" font-size="14" text-anchor="middle" x="385.0" y="191.0">+</text><rect fill="white" height="30" stroke="black" stroke-width="1" width="30" x="400" y="170" /><text font-family="Arial" font-size="14" text-anchor="middle" x="415.0" y="191.0">?</text><rect fill="white" height="30" stroke="black" stroke-width="1" width="30" x="430" y="170" /><text font-family="Arial" font-size="14" text-anchor="middle" x="445.0" y="191.0">=</text><rect fill="white" height="30" stroke="black" stroke-width="1" width="30" x="460" y="170" /><text font-family="Arial" font-size="14" text-anchor="middle" x="475.0" y="191.0">=</text><rect fill="white" height="30" stroke="black" stroke-width="1" width="30" x="490" y="170" /><text font-family="Arial" font-size="14" text-anchor="middle" x="505.0" y="191.0">$</text><rect fill="white" height="30" stroke="black" stroke-width="1" width="30" x="520" y="170" /><text font-family="Arial" font-size="14" text-anchor="middle" x="535.0" y="191.0">=</text><rect fill="white" height="30" stroke="black" stroke-width="1" width="30" x="550" y="170" /><text font-family="Arial" font-size="14" text-anchor="middle" x="565.0" y="191.0">?</text><rect fill="white" height="30" stroke="black" stroke-width="1" width="30" x="310" y="200" /><text font-family="Arial" font-size="14" text-anchor="middle" x="325.0" y="221.0">+</text><rect fill="white" height="30" stroke="black" stroke-width="1" width="30" x="340" y="200" /><text font-family="Arial" font-size="14" text-anchor="middle" x="355.0" y="221.0">+</text><rect fill="white" height="30" stroke="black" stroke-width="1" width="30" x="370" y="200" /><text font-family="Arial" font-size="14" text-anchor="middle" x="385.0" y="221.0">+</text><rect fill="white" height="30" stroke="black" stroke-width="1" width="30" x="400" y="200" /><text font-family="Arial" font-size="14" text-anchor="middle" x="415.0" y="221.0">?</text><rect fill="white" height="30" stroke="black" stroke-width="1" width="30" x="430" y="200" /><text font-family="Arial" font-size="14" text-anchor="middle" x="445.0" y="221.0">=</text><rect fill="white" height="30" stroke="black" stroke-width="1" width="30" x="460" y="200" /><text font-family="Arial" font-size="14" text-anchor="middle" x="475.0" y="221.0">=</text><rect fill="white" height="30" stroke="black" stroke-width="1" width="30" x="490" y="200" /><text font-family="Arial" font-size="14" text-anchor="middle" x="505.0" y="221.0">$</text><rect fill="white" height="30" stroke="black" stroke-width="1" width="30" x="520" y="200" /><text font-family="Arial" font-size="14" text-anchor="middle" x="535.0" y="221.0">=</text><rect fill="white" height="30" stroke="black" stroke-width="1" width="30" x="550" y="200" /><text font-family="Arial" font-size="14" text-anchor="middle" x="565.0" y="221.0">?</text><rect fill="white" height="30" stroke="black" stroke-width="1" width="30" x="310" y="230" /><text font-family="Arial" font-size="14" text-anchor="middle" x="325.0" y="251.0">?</text><rect fill="white" height="30" stroke="black" stroke-width="1" width="30" x="340" y="230" /><text font-family="Arial" font-size="14" text-anchor="middle" x="355.0" y="251.0">?</text><rect fill="white" height="30" stroke="black" stroke-width="1" width="30" x="370" y="230" /><text font-family="Arial" font-size="14" text-anchor="middle" x="385.0" y="251.0">?</text><rect fill="white" height="30" stroke="black" stroke-width="1" width="30" x="400" y="230" /><text font-family="Arial" font-size="14" text-anchor="middle" x="415.0" y="251.0">?</text><rect fill="white" height="30" stroke="black" stroke-width="1" width="30" x="430" y="230" /><text font-family="Arial" font-size="14" text-anchor="middle" x="445.0" y="251.0">?</text><rect fill="white" height="30" stroke="black" stroke-width="1" width="30" x="460" y="230" /><text font-family="Arial" font-size="14" text-anchor="middle" x="475.0" y="251.0">?</text><rect fill="white" height="30" stroke="black" stroke-width="1" width="30" x="490" y="230" /><text font-family="Arial" font-size="14" text-anchor="middle" x="505.0" y="251.0">$</text><rect fill="white" height="30" stroke="black" stroke-width="1" width="30" x="520" y="230" /><text font-family="Arial" font-size="14" text-anchor="middle" x="535.0" y="251.0">?</text><rect fill="white" height="30" stroke="black" stroke-width="1" width="30" x="550" y="230" /><text font-family="Arial" font-size="14" text-anchor="middle" x="565.0" y="251.0">?</text><rect fill="white" height="30" stroke="black" stroke-width="1" width="30" x="310" y="260" /><text font-family="Arial" font-size="14" text-anchor="middle" x="325.0" y="281.0">?</text><rect fill="white" height="30" stroke="black" stroke-width="1" width="30" x="340" y="260" /><text font-family="Arial" font-size="14" text-anchor="middle" x="355.0" y="281.0">?</text><rect fill="white" height="30" stroke="black" stroke-width="1" width="30" x="370" y="260" /><text font-family="Arial" font-size="14" text-anchor="middle" x="385.0" y="281.0">?</text><rect fill="white" height="30" stroke="black" stroke-width="1" width="30" x="400" y="260" /><text font-family="Arial" font-size="14" text-anchor="middle" x="415.0" y="281.0">?</text><rect fill="white" height="30" stroke="black" stroke-width="1" width="30" x="430" y="260" /><text font-family="Arial" font-size="14" text-anchor="middle" x="445.0" y="281.0">?</text><rect fill="white" height="30" stroke="black" stroke-width="1" width="30" x="460" y="260" /><text font-family="Arial" font-size="14" text-anchor="middle" x="475.0" y="281.0">?</text><rect fill="white" height="30" stroke="black" stroke-width="1" width="30" x="490" y="260" /><text font-family="Arial" font-size="14" text-anchor="middle" x="505.0" y="281.0">$</text><rect fill="white" height="30" stroke="black" stroke-width="1" width="30" x="520" y="260" /><text font-family="Arial" font-size="14" text-anchor="middle" x="535.0" y="281.0">?</text><rect fill="white" height="30" stroke="black" stroke-width="1" width="30" x="550" y="260" /><text font-family="Arial" font-size="14" text-anchor="middle" x="565.0" y="281.0">?</text><text font-family="Arial" font-size="12" x="20" y="300">Model: phi3:mini, Response: full, Correct: left</text></svg>