<?xml version="1.0" encoding="utf-8" ?>
<svg baseProfile="full" height="160px" version="1.1" width="300px" xmlns="http://www.w3.org/2000/svg" xmlns:ev="http://www.w3.org/2001/xml-events" xmlns:xlink="http://www.w3.org/1999/xlink"><defs /><text font-family="Arial" font-size="14" text-anchor="middle" x="80.0" y="10">Input Grid</text><rect fill="white" height="30" stroke="black" stroke-width="1" width="30" x="20" y="20" /><text font-family="Arial" font-size="14" text-anchor="middle" x="35.0" y="41.0">+</text><rect fill="white" height="30" stroke="black" stroke-width="1" width="30" x="50" y="20" /><text font-family="Arial" font-size="14" text-anchor="middle" x="65.0" y="41.0">+</text><rect fill="white" height="30" stroke="black" stroke-width="1" width="30" x="80" y="20" /><text font-family="Arial" font-size="14" text-anchor="middle" x="95.0" y="41.0">+</text><rect fill="white" height="30" stroke="black" stroke-width="1" width="30" x="110" y="20" /><text font-family="Arial" font-size="14" text-anchor="middle" x="125.0" y="41.0">+</text><rect fill="white" height="30" stroke="black" stroke-width="1" width="30" x="20" y="50" /><text font-family="Arial" font-size="14" text-anchor="middle" x="35.0" y="71.0">+</text><rect fill="white" height="30" stroke="black" stroke-width="1" width="30" x="50" y="50" /><text font-family="Arial" font-size="14" text-anchor="middle" x="65.0" y="71.0">+</text><rect fill="white" height="30" stroke="black" stroke-width="1" width="30" x="80" y="50" /><text font-family="Arial" font-size="14" text-anchor="middle" x="95.0" y="71.0">+</text><rect fill="white" height="30" stroke="black" stroke-width="1" width="30" x="110" y="50" /><text font-family="Arial" font-size="14" text-anchor="middle" x="125.0" y="71.0">+</text><rect fill="white" height="30" stroke="black" stroke-width="1" width="30" x="20" y="80" /><text font-family="Arial" font-size="14" text-anchor="middle" x="35.0" y="101.0">+</text><rect fill="white" height="30" stroke="black" stroke-width="1" width="30" x="50" y="80" /><text font-family="Arial" font-size="14" text-anchor="middle" x="65.0" y="101.0">!</text><rect fill="white" height="30" stroke="black" stroke-width="1" width="30" x="80" y="80" /><text font-family="Arial" font-size="14" text-anchor="middle" x="95.0" y="101.0">$</text><rect fill="white" height="30" stroke="black" stroke-width="1" width="30" x="110" y="80" /><text font-family="Arial" font-size="14" text-anchor="middle" x="125.0" y="101.0">+</text><rect fill="white" height="30" stroke="black" stroke-width="1" width="30" x="20" y="110" /><text font-family="Arial" font-size="14" text-anchor="middle" x="35.0" y="131.0">=</text><rect fill="white" height="30" stroke="black" stroke-width="1" width="30" x="50" y="110" /><text font-family="Arial" font-size="14" text-anchor="middle" x="65.0" y="131.0">!</text><rect fill="white" height="30" stroke="black" stroke-width="1" width="30" x="80" y="110" /><text font-family="Arial" font-size="14" text-anchor="middle" x="95.0" y="131.0">$</text><rect fill="white" height="30" stroke="black" stroke-width="1" width="30" x="110" y="110" /><text font-family="Arial" font-size="14" text-anchor="middle" x="125.0" y="131.0">+</text><text font-family="Arial" font-size="14" text-anchor="middle" x="220.0" y="10">Output Grid</text><rect fill="white" height="30" stroke="black" stroke-width="1" width="30" x="160" y="20" /><text font-family="Arial" font-size="14" text-anchor="middle" x="175.0" y="41.0">+</text><rect fill="white" height="30" stroke="black" stroke-width="1" width="30" x="190" y="20" /><text font-family="Arial" font-size="14" text-anchor="middle" x="205.0" y="41.0">$</text><rect fill="white" height="30" stroke="black" stroke-width="1" width="30" x="220" y="20" /><text font-family="Arial" font-size="14" text-anchor="middle" x="235.0" y="41.0">!</text><rect fill="white" height="30" stroke="black" stroke-width="1" width="30" x="250" y="20" /><text font-family="Arial" font-size="14" text-anchor="middle" x="265.0" y="41.0">=</text><rect fill="white" height="30" stroke="black" stroke-width="1" width="30" x="160" y="50" /><text font-family="Arial" font-size="14" text-anchor="middle" x="175.0" y="71.0">+</text><rect fill="white" height="30" stroke="black" stroke-width="1" width="30" x="190" y="50" /><text font-family="Arial" font-size="14" text-anchor="middle" x="205.0" y="71.0">$</text><rect fill="white" height="30" stroke="black" stroke-width="1" width="30" x="220" y="50" /><text font-family="Arial" font-size="14" text-anchor="middle" x="235.0" y="71.0">!</text><rect fill="white" height="30" stroke="black" stroke-width="1" width="30" x="250" y="50" /><text font-family="Arial" font-size="14" text-anchor="middle" x="265.0" y="71.0">+</text><rect fill="white" height="30" stroke="black" stroke-width="1" width="30" x="160" y="80" /><text font-family="Arial" font-size="14" text-anchor="middle" x="175.0" y="101.0">+</text><rect fill="white" height="30" stroke="black" stroke-width="1" width="30" x="190" y="80" /><text font-family="Arial" font-size="14" text-anchor="middle" x="205.0" y="101.0">+</text><rect fill="white" height="30" stroke="black" stroke-width="1" width="30" x="220" y="80" /><text font-family="Arial" font-size="14" text-anchor="middle" x="235.0" y="101.0">+</text><rect fill="white" height="30" stroke="black" stroke-width="1" width="30" x="250" y="80" /><text font-family="Arial" font-size="14" text-anchor="middle" x="265.0" y="101.0">+</text><rect fill="white" height="30" stroke="black" stroke-width="1" width="30" x="160" y="110" /><text font-family="Arial" font-size="14" text-anchor="middle" x="175.0" y="131.0">+</text><rect fill="white" height="30" stroke="black" stroke-width="1" width="30" x="190" y="110" /><text font-family="Arial" font-size="14" text-anchor="middle" x="205.0" y="131.0">+</text><rect fill="white" height="30" stroke="black" stroke-width="1" width="30" x="220" y="110" /><text font-family="Arial" font-size="14" text-anchor="middle" x="235.0" y="131.0">+</text><rect fill="white" height="30" stroke="black" stroke-width="1" width="30" x="250" y="110" /><text font-family="Arial" font-size="14" text-anchor="middle" x="265.0" y="131.0">+</text><text font-family="Arial" font-size="12" x="20" y="150">Model: phi3:mini, Response: none, Correct: full</text></svg>